<svg width="68" height="68" viewBox="0 0 68 68" fill="none" xmlns="http://www.w3.org/2000/svg">
<g clip-path="url(#clip0_1_13155)">
<path d="M63.0859 23.3484L58.1718 21.7812C57.6007 21.5953 57.2554 21.0109 57.3882 20.4132L58.4906 15.3796C59.6992 9.81479 54.1742 5.17964 48.9148 7.34448L44.1468 9.29683C43.589 9.52261 42.9515 9.29683 42.6726 8.76558L40.2687 4.19683C37.6257 -0.836768 30.414 -0.836768 27.7578 4.19683L25.3539 8.76558C25.0749 9.29683 24.4375 9.52261 23.8796 9.29683L19.1117 7.34448C13.839 5.17964 8.30073 9.81479 9.52261 15.3796L10.625 20.4132C10.7578 20.9976 10.4124 21.5953 9.84136 21.7812L4.92729 23.3484C-0.491456 25.075 -1.73989 32.1804 2.74917 35.6734L6.82651 38.8343C7.30464 39.2062 7.42417 39.8703 7.10542 40.3882L4.3562 44.7445C1.30151 49.539 4.91401 55.7812 10.5984 55.5554L15.7515 55.3562C16.3492 55.3296 16.8804 55.7679 16.9601 56.3656L17.6507 61.4789C18.421 67.1234 25.1945 69.5804 29.4046 65.7554L33.2164 62.289C33.6679 61.8773 34.3453 61.8773 34.7835 62.289L38.5953 65.7687C42.8054 69.5937 49.5789 67.1367 50.3492 61.4921L51.0398 56.3789C51.1195 55.7812 51.6374 55.3429 52.2484 55.3695L57.4015 55.5687C63.0859 55.7945 66.6984 49.5523 63.657 44.7312L60.9078 40.375C60.589 39.8703 60.7085 39.1929 61.1867 38.821L65.264 35.6601C69.7531 32.1804 68.5046 25.075 63.0859 23.3484ZM48.4632 28.0499L31.3835 45.1429C29.9492 46.5773 27.625 46.5773 26.1906 45.1429L17.6773 36.6296C16.2429 35.1953 16.2429 32.871 17.6773 31.4367C19.1117 30.0023 21.4359 30.0023 22.8703 31.4367L28.7804 37.3468L43.2703 22.8703C44.7046 21.4359 47.0289 21.4359 48.4632 22.8703C49.8976 24.3046 49.8976 26.6289 48.4632 28.0499Z" fill="url(#paint0_linear_1_13155)"/>
</g>
<defs>
<linearGradient id="paint0_linear_1_13155" x1="-0.390385" y1="-0.151588" x2="65.5444" y2="65.7819" gradientUnits="userSpaceOnUse">
<stop stop-color="#F6D697"/>
<stop offset="1" stop-color="#C9A96A"/>
</linearGradient>
<clipPath id="clip0_1_13155">
<rect width="68" height="68" fill="white"/>
</clipPath>
</defs>
</svg>
